<?xml version="1.0" encoding="UTF-8" standalone="no"?>
<!-- Created with Inkscape (http://www.inkscape.org/) -->

<svg
   version="1.1"
   id="svg1"
   width="116"
   height="180"
   viewBox="0 0 116 180"
   sodipodi:docname="modalidad-buhurt.svg"
   inkscape:version="1.4.2 (f4327f4, 2025-05-13)"
   xmlns:inkscape="http://www.inkscape.org/namespaces/inkscape"
   xmlns:sodipodi="http://sodipodi.sourceforge.net/DTD/sodipodi-0.dtd"
   xmlns="http://www.w3.org/2000/svg"
   xmlns:svg="http://www.w3.org/2000/svg">
  <defs
     id="defs1" />
  <sodipodi:namedview
     id="namedview1"
     pagecolor="#505050"
     bordercolor="#eeeeee"
     borderopacity="1"
     inkscape:showpageshadow="0"
     inkscape:pageopacity="0"
     inkscape:pagecheckerboard="0"
     inkscape:deskcolor="#505050"
     inkscape:zoom="2.75"
     inkscape:cx="57.818182"
     inkscape:cy="90"
     inkscape:window-width="1366"
     inkscape:window-height="697"
     inkscape:window-x="-8"
     inkscape:window-y="-8"
     inkscape:window-maximized="1"
     inkscape:current-layer="g1" />
  <g
     inkscape:groupmode="layer"
     inkscape:label="Image"
     id="g1">
    <path
       style="fill:#000000"
       d="m 53.720484,174.25 c -3.463323,-5.36522 -3.661809,-6.08459 -2.966094,-10.75 0.410085,-2.75 0.691875,-13.55 0.626199,-24 C 51.249462,118.63575 48.450998,95.144137 45.573493,90.752509 42.820345,86.550673 40.025498,86 21.452947,86 5.049909,86 3.8735253,85.873525 1.897574,83.897574 0.06543792,82.065438 -0.11976572,81.06909 0.45698427,76.147574 1.6751765,65.75251 0.70491893,66.39056 22.218785,61.836815 36.599358,58.792943 38.708226,58.602308 58,58.602308 c 19.291774,0 21.400642,0.190635 35.781215,3.234507 21.513865,4.553745 20.543605,3.915695 21.761805,14.310759 0.57675,4.921516 0.39154,5.917864 -1.44059,7.75 C 112.12647,85.873525 110.95009,86 94.547053,86 75.974502,86 73.179655,86.550673 70.426507,90.752509 67.549002,95.144137 64.750538,118.63575 64.619411,139.5 c -0.06568,10.45 0.216114,21.25 0.626199,24 0.695715,4.66541 0.497229,5.38478 -2.966094,10.75 C 60.238078,177.4125 58.312296,180 58,180 c -0.312296,0 -2.238078,-2.5875 -4.279516,-5.75 z M 35,78.414422 c 6.325,-0.349471 12.0625,-1.090782 12.75,-1.647357 1.662902,-1.346225 1.603157,-9.229081 -0.08054,-10.626425 -1.54351,-1.280999 -35.267016,3.280471 -37.411611,5.060327 -1.3601834,1.128852 -1.7276444,6.995905 -0.5141643,8.209385 0.4090273,0.409027 3.6715273,0.495238 7.2500003,0.19158 C 20.572159,79.298273 28.675,78.763894 35,78.414422 Z m 71.80056,-2.500013 C 106.97452,73.839148 106.55,71.871418 105.79271,71.242931 105.07309,70.645693 96.649075,69.004897 87.072689,67.596717 67.701876,64.748295 67,64.864895 67,70.931315 c 0,6.570166 0.740717,6.895579 18,7.907787 22.12547,1.297595 21.43891,1.389702 21.80056,-2.924693 z M 24.5,152.44394 C 13.5,146.08877 3.6706675,139.91252 2.6570389,138.71895 0.95472479,136.71444 0.86291503,135.09697 1.4540142,117.52441 1.8059792,107.06099 2.3373657,96.8125 2.6348731,94.75 L 3.1757957,91 H 21.016469 c 19.108537,0 20.320388,0.300036 21.487305,5.319927 1.492552,6.420713 3.674501,25.790413 4.188245,37.180073 0.587161,13.01727 -0.29091,30.50052 -1.531788,30.4994 C 44.797104,163.99908 35.5,158.79912 24.5,152.44394 Z m 14.190532,-4.07986 C 39.599781,145.99461 37.658167,143.5 34.904709,143.5 c -2.44841,0 -3.585851,2.28259 -2.520667,5.05841 0.760191,1.98103 5.528106,1.8341 6.30649,-0.19433 z M 21.069567,133.41618 C 22.823553,131.30275 21.073567,128.5 18,128.5 c -3.073567,0 -4.823553,2.80275 -3.069567,4.91618 C 15.653384,134.28728 17.034689,135 18,135 c 0.965311,0 2.346616,-0.71272 3.069567,-1.58382 z M 36.5,131.5 c 0,-2.49332 -0.442882,-3.05136 -2.622253,-3.3041 -2.914318,-0.33796 -4.331054,1.8005 -3.314582,5.00312 0.437363,1.378 1.357845,1.83059 3.272675,1.60912 C 36.060876,134.55079 36.5,134.00552 36.5,131.5 Z M 18.960131,118.54804 C 21.042488,116.03895 19.805145,113.5 16.5,113.5 c -3.052391,0 -4.287586,2.0052 -3.115958,5.05841 0.714902,1.86301 4.026435,1.85685 5.576089,-0.0104 z m 16.074079,-0.61196 c 2.229889,-4.16659 -3.844615,-6.8063 -6.374094,-2.7699 -0.754681,1.20428 -0.679744,2.10524 0.270317,3.25 1.832568,2.20811 4.789568,1.97552 6.103777,-0.4801 z M 16.837492,104.1216 c 0.735621,-0.46628 1.185621,-1.92189 1,-3.23469 C 17.56776,98.979229 16.900428,98.5 14.513695,98.5 c -3.318659,0 -4.5604,2.53387 -2.473826,5.04804 1.360311,1.63907 2.837926,1.81572 4.797623,0.57356 z m 16.122682,-0.57361 C 34.785496,101.34861 33.289922,98 30.482302,98 c -2.928933,0 -4.692092,2.73949 -3.362326,5.22418 1.149358,2.14759 4.186821,2.316 5.840198,0.32381 z m 36.49625,51.7723 C 68.267502,141.04934 70.42575,109.52862 73.496226,96.319927 74.663143,91.300036 75.874994,91 94.983531,91 l 17.840669,0 0.54093,3.75 c 0.2975,2.0625 0.82889,12.31099 1.18086,22.77441 0.59113,17.57351 0.49938,19.18958 -1.20303,21.19003 -1.61069,1.89268 -37.160733,23.12719 -41.517887,24.79919 -1.404853,0.53909 -1.736805,-0.60915 -2.368649,-8.19334 z M 83.5,146.5 c 0,-2.51985 -0.434555,-3.0501 -2.715122,-3.31306 -2.188639,-0.25235 -2.837094,0.17292 -3.344143,2.19317 -0.851778,3.39375 0.225513,4.79499 3.403701,4.4272 C 83.060105,149.55091 83.5,149.00305 83.5,146.5 Z m 1.955287,-13.35912 c 0.998098,-3.14473 -0.437979,-5.28081 -3.324483,-4.94498 -2.653563,0.30874 -3.815552,2.57729 -2.746762,5.36251 0.816253,2.12712 5.362844,1.81444 6.071245,-0.41753 z m 15.614283,0.2753 C 102.82355,131.30275 101.07357,128.5 98,128.5 c -3.073567,0 -4.823553,2.80275 -3.069567,4.91618 C 95.653384,134.28728 97.034689,135 98,135 c 0.965311,0 2.34662,-0.71272 3.06957,-1.58382 z M 87.339884,117.83382 c 2.172723,-3.46711 -3.627604,-6.60192 -6.286833,-3.39774 -0.899408,1.08372 -0.91285,1.95737 -0.05478,3.56068 1.321372,2.46901 4.747428,2.38098 6.341617,-0.16294 z M 102.5,116.5 c 0,-2.66361 -0.33486,-3 -2.986305,-3 -2.07944,0 -3.091459,0.54602 -3.332576,1.79804 -0.481557,2.50053 1.734153,4.85701 4.231371,4.50022 C 101.999,119.57158 102.5,118.78 102.5,116.5 Z M 88.865518,103.27582 C 90.234574,100.82946 88.446898,98 85.532204,98 c -1.537895,0 -2.630471,0.734251 -3.047435,2.04799 -1.291546,4.0693 4.320947,6.90849 6.380749,3.22783 z m 15.094612,0.27222 C 106.0467,101.03387 104.80496,98.5 101.4863,98.5 c -2.386728,0 -3.05406,0.479229 -3.323792,2.38691 -0.520221,3.67926 3.442932,5.49836 5.797622,2.66113 z M 4.4214917,54.230824 C 10.406221,36.634989 21.787734,22.00954 38.135055,10.908286 c 9.879487,-6.7090314 9.216495,-7.5759046 8.553026,11.183225 -0.376869,10.65572 -1.218114,19.004784 -2.399463,23.81384 l -1.81913,7.405352 -12.984744,2.256627 C 22.343135,56.808475 13.575,58.531915 10,59.397197 6.425,60.26248 3.1893079,60.977089 2.8095732,60.985219 2.4298384,60.993349 3.1552018,57.953871 4.4214917,54.230824 Z M 105.5,59.335209 C 102.2,58.511218 93.656865,56.818617 86.515256,55.573873 l -12.984744,-2.26317 -1.81913,-7.405352 C 70.530033,41.096295 69.688788,32.747231 69.311919,22.091511 68.647976,3.3189552 67.971178,4.1895572 77.957033,10.970821 94.438967,22.163489 105.5219,36.423648 111.57851,54.230824 c 2.56739,7.548443 2.8292,7.328589 -6.07851,5.104385 z M 48,52.062053 c 0,-0.515871 0.726272,-4.003371 1.613937,-7.75 0.956279,-4.036231 1.873124,-13.938669 2.25,-24.301244 L 52.5,2.5216185 l 2.621256,-1.25367 c 1.924348,-0.92035894 3.415746,-0.97670944 5.60954,-0.2119489 l 2.988283,1.0417211 0.58342,18.2011393 C 64.657442,31.372107 65.481734,40.849708 66.407338,44.5 68.700986,53.54543 69.240471,53 58,53 52.441056,53 48,52.583453 48,52.062053 Z"
       id="path1" />
  </g>
</svg>
